<svg width="52" height="46" viewBox="0 0 52 46" xmlns="http://www.w3.org/2000/svg">
    <g stroke="#394562" fill="none" fill-rule="evenodd" stroke-linecap="round" stroke-linejoin="round">
        <path d="M6.453 10.143a4.217 4.217 0 0 0 5.734 1.64 5.272 5.272 0 0 0 2.049-7.169 6.59 6.59 0 0 0-8.961-2.56 8.238 8.238 0 0 0-3.2 11.2c2.762 4.97 10.982 6 16.667 6h32.5M6.453 35.834a4.217 4.217 0 0 1 5.734-1.64 5.272 5.272 0 0 1 2.049 7.168 6.59 6.59 0 0 1-8.961 2.561 8.238 8.238 0 0 1-3.2-11.2c2.762-4.97 10.982-6 16.667-6h32.5"/>
    </g>
</svg>
