<svg width="222" height="222" viewBox="0 0 222 222" xmlns="http://www.w3.org/2000/svg">
    <g fill="none" fill-rule="evenodd">
        <path d="M221.343 110.956c0 61.003-49.454 110.457-110.457 110.457C49.883 221.413.43 171.959.43 110.956.43 49.954 49.883.5 110.886.5s110.457 49.454 110.457 110.456" fill="#A9DCCF"/>
        <path d="M110.886 164.188c29.053 0 52.604-23.552 52.604-52.604 0-29.053-23.551-52.606-52.604-52.606-29.052 0-52.604 23.553-52.604 52.606 0 29.052 23.552 52.604 52.604 52.604z" stroke="#6FC5AF" stroke-width="4.929"/>
        <path d="M76.215 112.779s3.247-2.247 9.564-2.247c6.318 0 9.564 2.247 9.564 2.247M121.846 133.502s-4.643 4.24-10.96 4.24c-6.318 0-10.96-4.24-10.96-4.24M124.037 112.779s3.248-2.247 9.564-2.247c6.317 0 9.565 2.247 9.565 2.247M109.743 61.37s-6.96 8.428-3.587 13.152c3.374 4.722 11.956 5.977 15.543 3.585" stroke="#6FC5AF" stroke-width="4.929" stroke-linecap="round"/>
    </g>
</svg>
