<svg width="52" height="46" viewBox="0 0 52 46" xmlns="http://www.w3.org/2000/svg">
    <g stroke="#394562" fill="none" fill-rule="evenodd" stroke-linecap="round" stroke-linejoin="round">
        <path d="M45.327 10.143a4.217 4.217 0 0 1-5.734 1.64 5.271 5.271 0 0 1-2.048-7.169 6.589 6.589 0 0 1 8.96-2.56 8.236 8.236 0 0 1 3.199 11.2c-2.761 4.97-10.981 6-16.666 6H.538M45.327 35.834a4.217 4.217 0 0 0-5.734-1.64 5.271 5.271 0 0 0-2.048 7.168 6.59 6.59 0 0 0 8.96 2.561 8.236 8.236 0 0 0 3.199-11.2c-2.761-4.97-10.981-6-16.666-6H.538"/>
    </g>
</svg>
