<svg width="107" height="89" viewBox="0 0 107 89" xmlns="http://www.w3.org/2000/svg">
    <g fill="none" fill-rule="evenodd">
        <path fill="#25304A" d="M5.065 21.059V3.514h32.55v67.035h12.826v17.666H3.976V70.549H16.56v-49.49z"/>
        <path fill="#FFF" d="M5.727 80.215V72.55H18.31V13.06H6.816V5.514h22.55V72.55h12.826v7.666z"/>
        <path d="M24.321 8.492H9.801v.968h13.431v66.309H8.107v.968h31.581v-.968H24.321V8.492zM1.815 18.535V.264h32.55v66.309h13.431v18.393H0V66.573h13.31V18.535H1.815z" fill="#EF7B7B"/>
        <g>
            <path fill="#25304A" d="M61.065 21.059V3.514h32.55v67.035h12.826v17.666H59.976V70.549H72.56v-49.49z"/>
            <path fill="#FFF" d="M61.727 80.215V72.55H74.31V13.06H62.816V5.514h22.55V72.55h12.826v7.666z"/>
            <path d="M80.321 8.492h-14.52v.968h13.431v66.309H64.107v.968h31.581v-.968H80.321V8.492zM57.815 18.535V.264h32.55v66.309h13.431v18.393H56V66.573h13.31V18.535H57.815z" fill="#EF7B7B"/>
        </g>
    </g>
</svg>
