<svg width="118" height="91" viewBox="0 0 118 91" xmlns="http://www.w3.org/2000/svg">
    <g fill="none" fill-rule="evenodd">
        <path d="M87.078 23.543c-4.84 0-8.349 2.3-8.349 8.228H60.337C60.095 13.5 72.437 4.545 87.441 4.183c24.322-.606 34.97 23.473 22.386 42.955L92.765 70.855h25.168v19.36H58.4v-3.267l31.824-46.586c4.235-5.687 7.502-16.819-3.146-16.819z" fill="#25304A"/>
        <path d="m62.39 82.215 28.66-41.954c2.949-4.003 6.99-12.384 3.738-18.859-1.098-2.189-3.983-5.859-10.96-5.859-6.387 0-10.897 3.051-12.6 8.228h-8.831C64.733 7.975 79.492 6.298 84.313 6.182c.262-.007.519-.01.774-.01 8.637 0 15.665 3.808 19.28 10.447 3.943 7.241 3.204 16.697-1.924 24.704L79.76 72.855h29.924v9.36H62.39z" fill="#FFF"/>
        <path d="M83.95 10.008c-7.745-.12-14.279 3.146-17.063 10.77h1.332c2.662-6.898 8.833-9.923 15.73-9.68 17.908.361 21.538 15.85 12.584 28.918L70.638 77.89h34.85v-1.21H72.695l24.926-36.059c9.56-13.794 5.203-30.372-13.673-30.613m-.12 10.285c-4.84 0-8.35 2.3-8.35 8.228H57.087C56.845 10.25 69.187 1.295 84.191.933c24.321-.606 34.97 23.473 22.386 42.955L89.515 67.605h25.168v19.36H55.15v-3.267l31.824-46.586c4.235-5.687 7.502-16.819-3.146-16.819" fill="#EF7B7B"/>
        <g>
            <path fill="#25304A" d="M5.065 23.059V5.514h32.55v67.035h12.826v17.666H3.976V72.549H16.56v-49.49z"/>
            <path fill="#FFF" d="M5.727 82.215V74.55H18.31V15.06H6.816V7.514h22.55V74.55h12.826v7.666z"/>
            <path d="M24.321 10.492H9.801v.968h13.431v66.309H8.107v.968h31.581v-.968H24.321V10.492zM1.815 20.535V2.264h32.55v66.309h13.431v18.393H0V68.573h13.31V20.535H1.815z" fill="#EF7B7B"/>
        </g>
    </g>
</svg>
