<svg width="36" height="36" viewBox="0 0 36 36" xmlns="http://www.w3.org/2000/svg">
    <g fill="none" fill-rule="evenodd">
        <circle fill="#6FC5AF" cx="18" cy="18" r="18"/>
        <g fill="#FFF">
            <path d="m21 8 1 2h3.005A2 2 0 0 1 27 12.006v5.642a3 3 0 0 0-3 3l-.001.751L23 21.4l-.176.005A3 3 0 0 0 20.026 24h-9.03A2 2 0 0 1 9 21.994v-9.988A2 2 0 0 1 10.995 10H14l1-2h6zm-3 4a5 5 0 1 0 0 10 5 5 0 0 0 0-10zm0 2a3 3 0 1 1 0 6 3 3 0 0 1 0-6z"/>
            <path d="M27 19.648a1 1 0 0 1 .993.884l.007.116V23.4l3 .001a1 1 0 0 1 .117 1.993L31 25.4l-3-.001v3.25a1 1 0 0 1-1.993.116L26 28.648V25.4l-3 .001a1 1 0 0 1-.117-1.993L23 23.4l2.999-.001.001-2.75a1 1 0 0 1 1-1z" fill-rule="nonzero"/>
        </g>
    </g>
</svg>
